<svg class="svg-icon" style="width: 1.3125em; height: 1em;vertical-align: middle;fill: currentColor;overflow: hidden;" viewBox="0 0 1344 1024" version="1.1" xmlns="http://www.w3.org/2000/svg"><path d="M118.096023 694.981664c5.629713 1.343454 13.274607 8.284634 15.481711 14.618061l11.195452 26.997033c2.526973 5.181895 2.047168 15.449724-0.95961 20.375722l-44.685847 73.05832c-9.564115 15.673633-7.58092 37.872614 5.277856 52.266767l37.840627 37.80864c13.178646 11.707244 36.433199 13.818386 51.59504 4.638116l73.05832-44.685847c4.574142-2.814856 14.394152-3.806454 21.271359-0.575766l26.965045 11.131478c5.437791 1.887233 12.378971 9.500141 13.722425 15.129853l20.055853 83.294162c4.254272 17.656827 21.111423 32.178927 39.216068 33.842252 0 0 11.099491 1.023584 27.732734 1.023584s27.732734-1.023584 27.76472-1.023584a46.189236 46.189236 0 0 0 39.184082-33.842252l20.087839-83.294162c1.343454-5.597726 8.252647-13.24262 14.586074-15.449723l26.997033-11.195452c4.766064-2.335051 15.801581-1.855246 20.375722 0.95961l73.05832 44.685847c6.429388 3.934402 14.106269 6.013557 22.262956 6.013557 11.035517 0 21.719177-3.870428 30.003811-11.259426l37.80864-37.840627a45.005716 45.005716 0 0 0 4.638116-51.59504l-44.685846-73.05832c-3.006778-4.925999-3.486584-15.193828-0.575767-21.271359l11.131478-26.965045c1.887233-5.437791 9.500141-12.378971 15.129854-13.722425l83.294162-20.055853a46.25321 46.25321 0 0 0 33.842251-39.216068s1.023584-11.099491 1.023584-27.732734-1.023584-27.732734-1.023584-27.76472a46.285197 46.285197 0 0 0-33.842251-39.216069l-83.262175-20.023865c-5.629713-1.343454-13.274607-8.284634-15.481711-14.618061l-11.195452-26.997033c-2.526973-5.181895-2.047168-15.449724 0.959611-20.375722l44.685846-73.05832c9.564115-15.673633 7.58092-37.872614-5.277856-52.266767l-37.840627-37.80864c-13.210633-11.739231-36.497173-13.850373-51.59504-4.638116l-73.05832 44.685846c-4.574142 2.782869-14.426139 3.838441-21.271358 0.575767l-26.965046-11.131478c-5.437791-1.887233-12.346984-9.500141-13.690438-15.129854l-20.087839-83.294162a46.25321 46.25321 0 0 0-39.216069-33.842251C443.563802 193.169525 432.464311 192.145941 415.831069 192.145941s-27.732734 1.023584-27.764721 1.023584a46.285197 46.285197 0 0 0-39.216068 33.842251l-20.023866 83.230188c-1.343454 5.629713-8.284634 13.274607-14.618061 15.481711l-26.997033 11.195452c-4.798051 2.335051-15.801581 1.823259-20.375722-0.959611L193.809265 291.27367c-15.129853-9.212258-37.904601-7.612907-52.266767 5.245869l-37.80864 37.840627a45.005716 45.005716 0 0 0-4.638116 51.59504l44.685847 73.05832c3.006778 4.925999 3.486584 15.193828 0.575766 21.271358l-11.131478 26.965046c-1.887233 5.437791-9.500141 12.378971-15.129854 13.722425l-83.294161 20.055852A46.25321 46.25321 0 0 0 0.95961 580.244276c0.063974 0-0.95961 11.099491-0.95961 27.732733s1.023584 27.732734 1.023584 27.764721a46.285197 46.285197 0 0 0 33.842252 39.216068l83.230187 20.023866zM31.987005 607.977009c0-14.650048 0.863649-24.534033 0.895636-24.853903a14.905944 14.905944 0 0 1 9.468154-11.00353l83.294162-20.055852c16.153438-3.902415 32.434823-18.680411 37.48877-33.490394l10.36379-25.173774c7.293037-14.937931 6.269453-36.881017-2.399026-51.083247l-44.685846-73.026333c-2.143129-3.550558-1.535376-10.587699 0.575766-12.986724L163.485584 319.774092c2.910817-2.590947 10.331803-3.230688 13.658451-1.215506l73.05832 44.685846c13.850373 8.476556 37.584731 9.052322 50.155625 2.814856l25.20576-10.427763c15.70562-5.405804 30.483616-21.68719 34.38603-37.872615l20.023866-83.262174a14.873957 14.873957 0 0 1 11.00353-9.500141c0.31987 0 10.203855-0.863649 24.853903-0.863649s24.534033 0.863649 24.853903 0.895636a14.905944 14.905944 0 0 1 11.00353 9.468154l20.055852 83.262174c3.902415 16.153438 18.648424 32.46681 33.490394 37.520758l25.173774 10.363789c14.618061 7.165089 37.264861 6.045544 51.083247-2.399025l73.026333-44.685846c3.326649-2.015181 11.195452-0.95961 12.986724 0.575766l36.52916 36.497173c2.750882 3.10274 3.358636 10.107894 1.215506 13.658451l-44.685846 73.05832c-8.668478 14.170243-9.692063 36.145316-2.814856 50.155624l10.427763 25.20576c5.405804 15.70562 21.68719 30.483616 37.872615 34.386031l83.262174 20.023865a14.873957 14.873957 0 0 1 9.500141 11.00353c0 0.31987 0.863649 10.203855 0.863649 24.853903s-0.863649 24.534033-0.895636 24.853903a14.905944 14.905944 0 0 1-9.468154 11.00353l-83.294161 20.055853c-16.153438 3.902415-32.434823 18.680411-37.488771 33.490394l-10.363789 25.173773c-7.293037 14.937931-6.269453 36.881017 2.399025 51.083248l44.685846 73.026333c2.143129 3.550558 1.535376 10.587699-0.575766 12.986724l-36.497173 36.52916a12.730828 12.730828 0 0 1-8.028738 2.526973 11.067504 11.067504 0 0 1-5.597726-1.311467l-73.05832-44.685846c-13.818386-8.444569-37.552744-9.052322-50.155624-2.814857l-25.20576 10.427764c-15.70562 5.405804-30.483616 21.719177-34.354044 37.872614l-20.055852 83.262175a14.873957 14.873957 0 0 1-11.00353 9.500141c-0.351857 0-10.235842 0.863649-24.88589 0.863649s-24.534033-0.863649-24.853903-0.895636a14.905944 14.905944 0 0 1-11.00353-9.468154l-20.055853-83.294162c-3.902415-16.153438-18.680411-32.434823-33.490394-37.48877l-25.173773-10.36379a52.23478 52.23478 0 0 0-22.870709-4.862024c-10.523725 0-20.535657 2.590947-28.212539 7.293037l-73.026333 44.685846c-3.326649 2.015181-11.227439 0.927623-12.986724-0.575766L127.628151 860.322494c-2.750882-3.10274-3.358636-10.107894-1.215506-13.658451l44.685846-73.05832c8.668478-14.170243 9.692063-36.145316 2.814857-50.155625l-10.427764-25.20576c-5.405804-15.70562-21.68719-30.483616-37.872614-34.38603l-83.262175-20.023866a14.873957 14.873957 0 0 1-9.500141-11.00353c0-0.31987-0.863649-10.203855-0.863649-24.853903z" fill="#828282" /><path d="M415.831069 783.905538c97.016587 0 175.928529-78.911942 175.928529-175.928529s-78.911942-175.928529-175.928529-175.928529-175.928529 78.911942-175.928529 175.928529 78.911942 175.928529 175.928529 175.928529z m0-319.870052c79.35976 0 143.941524 64.581764 143.941523 143.941523s-64.581764 143.941524-143.941523 143.941524-143.941524-64.581764-143.941524-143.941524 64.581764-143.941524 143.941524-143.941523zM878.906944 170.202855a13.56249 13.56249 0 0 1-8.284634 4.414207l-59.527817-0.575766a37.104926 37.104926 0 0 0-33.682317 23.862306s-2.622934 7.452972-5.501765 18.872333c-2.87883 11.419361-4.094337 19.22419-4.094336 19.22419-2.23909 14.426139 5.789648 30.387655 18.680411 37.136913l52.490675 27.508825a13.914347 13.914347 0 0 1 5.309843 8.732452l2.974792 20.311748a13.626464 13.626464 0 0 1-2.686909 8.956362l-42.286821 41.455159c-10.587699 10.36379-13.370568 28.084591-6.077531 41.998938l19.160217 31.987005c8.092712 11.899166 25.621591 17.976697 39.376003 13.690438l58.344298-17.848749c3.166714 0 6.333427 1.215506 8.124699 2.654922l16.473308 12.155062a13.754412 13.754412 0 0 1 4.414206 8.284634l-0.575766 59.239934c-0.127948 14.586074 10.107894 29.204136 23.862306 34.002186 0 0 7.452972 2.622934 18.872333 5.501765 11.419361 2.87883 19.22419 4.094337 19.224191 4.094337 0.831662 0.127948 4.158311 0.383844 4.989972 0.383844a37.424796 37.424796 0 0 0 32.146941-19.064255l27.508824-52.490676a13.914347 13.914347 0 0 1 8.732453-5.309843l21.207384-3.070752c3.198701 0 6.973167 1.663324 8.028739 2.750882l41.455158 42.286821c10.075907 10.299816 27.061006 13.978321 41.998938 6.077531l31.955019-19.160216c12.219036-8.316621 18.136632-25.269734 13.722425-39.376003l-17.656827-56.521039a13.850373 13.850373 0 0 1 2.494986-9.947958l12.155062-16.473308a13.56249 13.56249 0 0 1 8.284635-4.414207l59.527817 0.575766a37.104926 37.104926 0 0 0 33.682316-23.862306s2.622934-7.452972 5.501765-18.872333c2.87883-11.419361 4.094337-19.22419 4.094337-19.22419a37.104926 37.104926 0 0 0-18.680411-37.136913l-52.490676-27.508825a13.914347 13.914347 0 0 1-5.309843-8.732452l-2.942804-20.247774a13.626464 13.626464 0 0 1 2.686908-8.956362l42.286821-41.455159c10.587699-10.36379 13.370568-28.084591 6.077531-41.998938l-19.160216-31.987005c-8.092712-11.867179-25.589604-18.008684-39.376004-13.722425l-58.376284 17.848749a13.818386 13.818386 0 0 1-8.1247-2.654922l-16.473307-12.155062a13.754412 13.754412 0 0 1-4.414207-8.284634l0.575766-59.239934a37.040952 37.040952 0 0 0-23.862306-34.002186s-7.452972-2.622934-18.872333-5.501765c-11.419361-2.87883-19.22419-4.094337-19.22419-4.094337a87.164589 87.164589 0 0 0-4.989973-0.351857 37.424796 37.424796 0 0 0-32.14694 19.064255l-27.508825 52.490676a13.914347 13.914347 0 0 1-8.732452 5.309843l-21.207385 3.038765a13.978321 13.978321 0 0 1-8.028738-2.750882l-41.455159-42.286821a35.56955 35.56955 0 0 0-41.998938-6.077531l-31.987005 19.128229c-12.219036 8.316621-18.136632 25.269734-13.722425 39.376003l17.656826 56.521039a13.850373 13.850373 0 0 1-2.494986 9.947958l-12.123075 16.473308z m26.229344 18.296567l10.971543-14.905944c8.572517-10.139881 11.899166-26.677162 7.932778-39.31203l-17.62484-56.489051c-0.159935-0.895636 0.543779-2.910817 0.383844-2.942805l30.323681-18.168619 3.614531 0.543779 41.487146 42.286821c7.357011 7.484959 19.480086 12.346984 30.86746 12.346984a30.22772 30.22772 0 0 0 6.525349-0.607753l18.392528-2.718895a44.557898 44.557898 0 0 0 33.362447-22.198982l27.476837-52.458688a5.917596 5.917596 0 0 1 3.838441-1.951208c0.351857 0.031987 6.877206 1.119545 16.409334 3.486584 9.500141 2.399025 15.769594 4.542155 16.057476 4.670103 0.991597 0.415831 2.431012 2.494986 2.494987 3.51857l-0.575766 59.239934c-0.127948 13.24262 7.836816 28.116578 18.136632 34.833849l14.873957 10.971543c9.883985 8.348608 26.837097 11.867179 39.31203 7.932777l56.744947-17.656827c1.343454 0 2.846843 0.831662 2.654921 0.415831l18.168619 30.323681c0.351857 0.831662 0 2.942804-0.543779 3.614532l-42.286821 41.487145c-9.436167 9.308219-14.330178 25.429669-11.739231 37.39281l2.686909 18.392528c1.151532 13.178646 10.491738 27.220941 22.230969 33.362446l52.458688 27.476838a6.045544 6.045544 0 0 1 1.951207 3.83844 204.876769 204.876769 0 0 1-3.486583 16.409334 194.960797 194.960797 0 0 1-4.670103 16.057477c-0.415831 0.991597-2.494986 2.431012-3.51857 2.494986l-59.559804-0.575766c-13.146659 0-27.860682 7.964764-34.513979 18.136632l-10.939556 14.873957a44.333989 44.333989 0 0 0-7.932777 39.31203l17.62484 56.489051c0.159935 0.863649-0.543779 2.910817-0.383844 2.942805l-30.323681 18.168619-3.614532-0.543779-41.487146-42.286821c-7.357011-7.484959-19.480086-12.346984-30.86746-12.346984a30.22772 30.22772 0 0 0-6.525349 0.607753l-18.392528 2.718895a44.557898 44.557898 0 0 0-33.362446 22.198982l-27.476838 52.458689a5.917596 5.917596 0 0 1-3.838441 1.951207 204.876769 204.876769 0 0 1-16.409333-3.486584 194.960797 194.960797 0 0 1-16.057477-4.670103c-0.991597-0.415831-2.431012-2.494986-2.494986-3.51857l0.575766-59.239934c0.127948-13.24262-7.836816-28.116578-18.136632-34.833849l-14.873958-10.971542a44.365976 44.365976 0 0 0-39.344016-7.932778l-56.744948 17.656827c-1.375441 0-2.87883-0.735701-2.654921-0.415831l-18.168619-30.323681c-0.351857-0.831662 0-2.942804 0.543779-3.614531l42.286821-41.487146c9.436167-9.308219 14.330178-25.429669 11.739231-37.39281l-2.686908-18.360541a44.525911 44.525911 0 0 0-22.230969-33.362446l-52.458689-27.476838a6.045544 6.045544 0 0 1-1.951207-3.83844c0.031987-0.351857 1.119545-6.877206 3.486584-16.409334 2.399025-9.500141 4.542155-15.769594 4.670102-16.057477 0.415831-0.991597 2.494986-2.431012 3.518571-2.494986l59.559804 0.575766c13.146659 0 27.860682-7.964764 34.513978-18.136632z" fill="#828282" /><path d="M1055.571174 384.067972c52.906507 0 95.961016-43.054509 95.961016-95.961015s-43.054509-95.961016-95.961016-95.961016-95.961016 43.054509-95.961016 95.961016 43.054509 95.961016 95.961016 95.961015z m0-159.935026c35.281667 0 63.974011 28.692344 63.974011 63.974011s-28.692344 63.974011-63.974011 63.97401-63.974011-28.692344-63.97401-63.97401 28.692344-63.974011 63.97401-63.974011z" fill="#828282" /></svg>