<?xml version="1.0" encoding="UTF-8"?>
<svg width="512" height="512" viewBox="0 0 512 512" xmlns="http://www.w3.org/2000/svg">
  <path fill="white" opacity="0.05" d="M487.4 315.7c3.3-20.1 3.3-41 0-61.2l45.6-35.5c5.4-4.2 7.1-11.6 4-17.5l-43.2-74.8c-3.1-5.4-9.6-8-15.7-6.4l-53.7 15.1c-16.1-13-33.8-23.4-52.9-30.9l-8.1-56.1c-1-6-6-10.5-12.2-10.5h-86.4c-6.1 0-11.2 4.5-12.2 10.5l-8.1 56.1c-19.1 7.5-36.9 17.9-52.9 30.9l-53.7-15.1c-6.1-1.6-12.6 1-15.7 6.4L-25 201.5c-3.1 5.4-1.4 13.3 4 17.5l45.6 35.5c-3.3 20.1-3.3 41 0 61.2L-21 352.8c-5.4 4.2-7.1 11.6-4 17.5l43.2 74.8c3.1 5.4 9.6 8 15.7 6.4l53.7-15.1c16.1 13 33.8 23.4 52.9 30.9l8.1 56.1c1 6 6 10.5 12.2 10.5h86.4c6.1 0 11.2-4.5 12.2-10.5l8.1-56.1c19.1-7.5 36.9-17.9 52.9-30.9l53.7 15.1c6.1 1.6 12.6-1 15.7-6.4l43.2-74.8c3.1-5.4 1.4-13.3-4-17.5l-45.6-35.5zM256 336c-44.1 0-80-35.9-80-80s35.9-80 80-80c44.1 0 80 35.9 80 80s-35.9 80-80 80z"/>
</svg>
